<svg xmlns="http://www.w3.org/2000/svg" width="1440" height="1440" viewBox="0 0 1440 1440"><title>Visit Collector — v4 light segmented monograms</title><desc>Four refinements with slimmer segmented Cs, multicolor Vs, and black and yellow dots.</desc><rect width="1440" height="1440" fill="#E8EDF3"/>
<rect x="40" y="40" width="660" height="660" rx="24" fill="#F8FAFC"/><svg x="114" y="86" width="512" height="512" viewBox="0 0 1024 1024">
<title id="c0-title">Visit Collector — Airy primary</title>
<desc id="c0-desc">A slender multicolor C with crisp separated color sections surrounds a multicolor V with true negative-space splits. Black and yellow dots keep the visitor and arrival symbols simple. Original VC identity with more internal space. Icon only.</desc>
<defs><clipPath id="c0-left-arm"><rect x="250" y="390" width="257" height="330"/></clipPath><clipPath id="c0-right-arm"><rect x="517" y="390" width="250" height="330"/></clipPath></defs><rect width="1024" height="1024" fill="#F8FAFC"/>
<g data-role="collector-c"><path d="M697.78620637 344.71734841A250 250 0 0 0 340.70425242 329.90725753" fill="none" stroke="#E44747" stroke-width="64"/><path d="M329.90725753 340.70425242A250 250 0 0 0 329.90725753 683.29574758" fill="none" stroke="#2563EB" stroke-width="64"/><path d="M340.70425242 694.09274247A250 250 0 0 0 697.78620637 679.28265159" fill="none" stroke="#159A63" stroke-width="64"/><circle cx="697.78620637" cy="344.71734841" r="32.0" fill="#E44747"/><circle cx="697.78620637" cy="679.28265159" r="32.0" fill="#159A63"/></g><g data-role="visitor-v"><path d="M408 464L512 622L616 464" fill="none" stroke="#2563EB" stroke-width="56" stroke-linecap="round" stroke-linejoin="round" clip-path="url(#c0-left-arm)"/><path d="M408 464L512 622L616 464" fill="none" stroke="#159A63" stroke-width="56" stroke-linecap="round" stroke-linejoin="round" clip-path="url(#c0-right-arm)"/></g>
<circle data-role="visitor-head" cx="512" cy="365" r="30" fill="#15191F"/>
<circle data-role="arrival-dot" cx="754" cy="512" r="30" fill="#F4C542"/>
</svg><text x="70" y="80" fill="#66778D" font-family="Helvetica,Arial,sans-serif" font-size="18">01</text><text x="370" y="654" text-anchor="middle" fill="#162C46" font-family="Helvetica,Arial,sans-serif" font-size="22" font-weight="500">Airy primary</text>
<rect x="740" y="40" width="660" height="660" rx="24" fill="#F8FAFC"/><svg x="814" y="86" width="512" height="512" viewBox="0 0 1024 1024">
<title id="c1-title">Visit Collector — Diagonal primary</title>
<desc id="c1-desc">A slender multicolor C with crisp separated color sections surrounds a multicolor V with true negative-space splits. Black and yellow dots keep the visitor and arrival symbols simple. Original VC identity with more internal space. Icon only.</desc>
<rect width="1024" height="1024" fill="#F8FAFC"/>
<g data-role="collector-c"><path d="M697.78620637 344.71734841A250 250 0 0 0 340.70425242 329.90725753" fill="none" stroke="#E44747" stroke-width="64"/><path d="M329.90725753 340.70425242A250 250 0 0 0 329.90725753 683.29574758" fill="none" stroke="#2563EB" stroke-width="64"/><path d="M340.70425242 694.09274247A250 250 0 0 0 697.78620637 679.28265159" fill="none" stroke="#159A63" stroke-width="64"/><circle cx="697.78620637" cy="344.71734841" r="32.0" fill="#E44747"/><circle cx="697.78620637" cy="679.28265159" r="32.0" fill="#159A63"/></g><g data-role="visitor-v">
<path d="M408 464L482.88 577.76" fill="none" stroke="#2563EB" stroke-width="56"/>
<circle cx="408" cy="464" r="28" fill="#2563EB"/>
<path d="M489.12 587.24L512 622L616 464" fill="none" stroke="#159A63" stroke-width="56" stroke-linejoin="round"/>
<circle cx="616" cy="464" r="28" fill="#159A63"/>
</g>
<circle data-role="visitor-head" cx="512" cy="365" r="30" fill="#F4C542"/>
<circle data-role="arrival-dot" cx="754" cy="512" r="30" fill="#15191F"/>
</svg><text x="770" y="80" fill="#66778D" font-family="Helvetica,Arial,sans-serif" font-size="18">02</text><text x="1070" y="654" text-anchor="middle" fill="#162C46" font-family="Helvetica,Arial,sans-serif" font-size="22" font-weight="500">Diagonal primary</text>
<rect x="40" y="740" width="660" height="660" rx="24" fill="#F8FAFC"/><svg x="114" y="786" width="512" height="512" viewBox="0 0 1024 1024"><title id="c2-title">Visit Collector — Open Spectrum</title><desc id="c2-desc">A spacious visitor monogram with a thin three-color C, precise radial color breaks, and a two-color V with an intact rounded vertex and a narrow diagonal break across the right arm. Black and yellow dots identify the visitor and arriving visit.</desc><defs><clipPath id="c2-left"><polygon points="-100.0000,88.6147 1124.0000,894.2856 1124.0000,1124.0000 -100.0000,1124.0000"/></clipPath><clipPath id="c2-right"><polygon points="-100.0000,-100.0000 1124.0000,-100.0000 1124.0000,882.3137 -100.0000,76.6428"/></clipPath></defs><rect width="1024" height="1024" fill="#F8FAFC"/><g data-role="collector-c"><path d="M685.6646 332.1650A250 250 0 0 0 341.5004 329.1616" fill="none" stroke="#2563EB" stroke-width="60"/><path d="M329.1616 341.5004A250 250 0 0 0 329.1616 682.4996" fill="none" stroke="#159A63" stroke-width="60"/><path d="M341.5004 694.8384A250 250 0 0 0 685.6646 691.8350" fill="none" stroke="#E44747" stroke-width="60"/><circle cx="685.6646" cy="332.1650" r="30" fill="#2563EB"/><circle cx="685.6646" cy="691.8350" r="30" fill="#E44747"/></g><g data-role="visitor-v"><path data-role="visitor-v-left" d="M408 464L512 622L616 464" fill="none" stroke="#2563EB" stroke-width="54" stroke-linecap="round" stroke-linejoin="round" clip-path="url(#c2-left)"/><path data-role="visitor-v-right" d="M408 464L512 622L616 464" fill="none" stroke="#159A63" stroke-width="54" stroke-linecap="round" stroke-linejoin="round" clip-path="url(#c2-right)"/></g><circle data-role="visitor-head" cx="512" cy="365" r="28" fill="#15191F"/><circle data-role="arrival" cx="756" cy="512" r="30" fill="#F4C542"/></svg><text x="70" y="780" fill="#66778D" font-family="Helvetica,Arial,sans-serif" font-size="18">03</text><text x="370" y="1354" text-anchor="middle" fill="#162C46" font-family="Helvetica,Arial,sans-serif" font-size="22" font-weight="500">Open spectrum</text>
<rect x="740" y="740" width="660" height="660" rx="24" fill="#F8FAFC"/><svg x="814" y="786" width="512" height="512" viewBox="0 0 1024 1024"><title id="c3-title">Visit Collector — Fine Spectrum</title><desc id="c3-desc">A spacious visitor monogram with a thin three-color C, precise radial color breaks, and a two-color V with an intact rounded vertex and a narrow diagonal break across the right arm. Black and yellow dots identify the visitor and arriving visit.</desc><defs><clipPath id="c3-left"><polygon points="-100.0000,88.6147 1124.0000,894.2856 1124.0000,1124.0000 -100.0000,1124.0000"/></clipPath><clipPath id="c3-right"><polygon points="-100.0000,-100.0000 1124.0000,-100.0000 1124.0000,882.3137 -100.0000,76.6428"/></clipPath></defs><rect width="1024" height="1024" fill="#F8FAFC"/><g data-role="collector-c"><path d="M697.7862 344.7173A250 250 0 0 0 341.5004 329.1616" fill="none" stroke="#E44747" stroke-width="56"/><path d="M329.1616 341.5004A250 250 0 0 0 329.1616 682.4996" fill="none" stroke="#2563EB" stroke-width="56"/><path d="M341.5004 694.8384A250 250 0 0 0 697.7862 679.2827" fill="none" stroke="#159A63" stroke-width="56"/><circle cx="697.7862" cy="344.7173" r="28" fill="#E44747"/><circle cx="697.7862" cy="679.2827" r="28" fill="#159A63"/></g><g data-role="visitor-v"><path data-role="visitor-v-left" d="M408 464L512 622L616 464" fill="none" stroke="#E44747" stroke-width="52" stroke-linecap="round" stroke-linejoin="round" clip-path="url(#c3-left)"/><path data-role="visitor-v-right" d="M408 464L512 622L616 464" fill="none" stroke="#2563EB" stroke-width="52" stroke-linecap="round" stroke-linejoin="round" clip-path="url(#c3-right)"/></g><circle data-role="visitor-head" cx="512" cy="365" r="28" fill="#F4C542"/><circle data-role="arrival" cx="756" cy="512" r="30" fill="#15191F"/></svg><text x="770" y="780" fill="#66778D" font-family="Helvetica,Arial,sans-serif" font-size="18">04</text><text x="1070" y="1354" text-anchor="middle" fill="#162C46" font-family="Helvetica,Arial,sans-serif" font-size="22" font-weight="500">Fine spectrum</text>
</svg>